<svg xmlns="http://www.w3.org/2000/svg" viewBox="0 0 120 120"><defs><style>.a{fill:#00b900;}.b{fill:#fff;}</style></defs><title>line</title><rect class="a" width="120" height="120" rx="26" ry="26"/><path class="b" d="M103.5,54.723c0-19.55-19.6-35.455-43.691-35.455S16.114,35.173,16.114,54.723c0,17.527,15.544,32.206,36.54,34.981,1.422.307,3.359.938,3.849,2.154a8.986,8.986,0,0,1,.141,3.951s-.512,3.083-.623,3.74c-.191,1.1-.878,4.32,3.784,2.355S84.966,87.089,94.133,76.538h0c6.332-6.944,9.365-13.99,9.365-21.815"/><path class="a" d="M50.928,45.276H47.863a.851.851,0,0,0-.851.85V65.163a.85.85,0,0,0,.851.849h3.065a.85.85,0,0,0,.851-.849V46.126a.851.851,0,0,0-.851-.85"/><path class="a" d="M72.022,45.276H68.958a.85.85,0,0,0-.851.85v11.31L59.382,45.654a.932.932,0,0,0-.066-.086l-.006-.006a.626.626,0,0,0-.051-.052l-.016-.015a.563.563,0,0,0-.045-.038l-.022-.017c-.015-.01-.029-.021-.044-.03l-.026-.015-.045-.026-.027-.013c-.016-.007-.032-.015-.049-.021l-.028-.009a.42.42,0,0,0-.05-.017l-.03-.008-.049-.011-.036,0c-.014,0-.029,0-.044-.006l-.045,0H55.61a.851.851,0,0,0-.851.85V65.163a.85.85,0,0,0,.851.849h3.064a.851.851,0,0,0,.852-.849V53.856l8.734,11.8a.843.843,0,0,0,.216.21l.009.007.053.032.024.013.04.02.042.017.025.01.058.018.013,0a.82.82,0,0,0,.218.029h3.064a.85.85,0,0,0,.851-.849V46.126a.851.851,0,0,0-.851-.85"/><path class="a" d="M43.541,61.245H35.213V46.126a.849.849,0,0,0-.85-.85H31.3a.85.85,0,0,0-.851.85V65.163a.842.842,0,0,0,.238.587l.012.013.012.012a.844.844,0,0,0,.588.237H43.541a.85.85,0,0,0,.849-.851V62.1a.851.851,0,0,0-.849-.851"/><path class="a" d="M88.946,50.043a.851.851,0,0,0,.85-.851V46.128a.851.851,0,0,0-.85-.852H76.7a.845.845,0,0,0-.59.24l-.01.009-.014.015a.849.849,0,0,0-.236.586V65.163a.842.842,0,0,0,.238.587l.012.013.012.011a.846.846,0,0,0,.588.238H88.946a.851.851,0,0,0,.85-.851V62.1a.851.851,0,0,0-.85-.851H80.619V58.027h8.327a.85.85,0,0,0,.85-.851V54.112a.852.852,0,0,0-.85-.852H80.619V50.043Z"/></svg>