<svg xmlns="http://www.w3.org/2000/svg" viewBox="0 0 532.962 271.573"><defs><style>.a,.b{fill:none;}.a{stroke:#000;stroke-miterlimit:10;}</style></defs><title>logo_white</title><circle class="a" cx="80.735" cy="81.568" r="64.033"/><path class="a" d="M.5,76.139S3.861.5,83.982.5"/><polyline class="a" points="134.968 146.171 25.712 254.31 144.769 254.31"/><polyline class="a" points="303.615 17.534 195.479 17.534 195.479 118.16"/><circle class="a" cx="262.816" cy="178.55" r="75.76"/><path class="a" d="M357.373,178.55s-9.476,97.471-94.557,92.327"/><line class="a" x1="389.595" y1="17.534" x2="389.595" y2="118.16"/><path class="a" d="M450.292,102.789s82.17,5.246,82.17,82.171"/><circle class="a" cx="447.831" cy="187.285" r="67.025"/><path d="M423.413,36.244c-1.261,0-2.377.036-3.348.09-.2,0-.253-.054-.289-.252-.036-.306-.072-.72-.09-1.206,1.207.09,2.359.108,3.727.108h5.87c1.494,0,2.917-.036,4.07-.072.215,0,.269.054.269.234a6.919,6.919,0,0,1,0,.864c0,.216-.054.27-.269.27-1.153-.036-2.684-.036-4.016-.036Zm1.549-7.526c-1.009,0-1.909.036-2.791.072-.181,0-.234-.054-.252-.27-.036-.36-.072-.774-.072-1.17,1.116.09,2.07.108,3.1.108h2.9c1.224,0,2.268-.018,3.259-.073.143,0,.2.055.2.217a8.268,8.268,0,0,1,0,.918c0,.2-.055.234-.217.234-1.008-.036-2.106-.036-3.205-.036Z"/><path d="M455,32.5a14.767,14.767,0,0,0-2.432.18c-.162,0-.252-.072-.305-.252a10.465,10.465,0,0,1-.18-1.368,32.884,32.884,0,0,0,3.979.162h5.528c1.242,0,2.574-.018,3.942-.054.217-.018.271.018.271.216a8.594,8.594,0,0,1,0,.936c0,.2-.054.234-.271.216-1.349-.036-2.682-.036-3.888-.036Z"/><path d="M430.183,50.282h-6.536c-1.063,0-1.855.036-2.611.09-.18,0-.234-.054-.252-.234-.036-.306-.054-.828-.054-1.17,1.062.09,1.837.108,2.9.108H428.2c.99,0,2.034-.036,3.025-.054.234,0,.306.054.288.27-.018.846-.036,1.746-.036,2.665v3.907c0,1.08.036,2.3.054,3.042,0,.181-.036.217-.216.217a7.208,7.208,0,0,1-.882,0c-.216,0-.252-.018-.252-.234V58.1h-6.536c-1.027,0-1.963.036-2.809.073-.145.018-.181-.037-.2-.217a10.765,10.765,0,0,1-.054-1.152c.918.072,1.908.09,3.061.09h6.536Zm1.1-3.907c.072-.054.108-.036.18.018a8.717,8.717,0,0,1,2.034,2.178.131.131,0,0,1-.035.2l-.522.432a.145.145,0,0,1-.235-.036,7.753,7.753,0,0,0-2.089-2.3Zm1.494-1.17c.073-.054.126-.073.2-.018a10.372,10.372,0,0,1,2.052,2.106c.054.09.036.144-.054.216l-.487.433c-.071.071-.143.071-.215-.037a8.638,8.638,0,0,0-2.071-2.251Z"/><path d="M455.632,54.1a14.761,14.761,0,0,0-2.431.18c-.161,0-.252-.072-.305-.252a10.3,10.3,0,0,1-.18-1.368,32.876,32.876,0,0,0,3.978.162h5.529c1.242,0,2.574-.018,3.942-.054.217-.018.271.018.271.216a8.594,8.594,0,0,1,0,.936c0,.2-.054.234-.271.216-1.349-.036-2.682-.036-3.889-.036Z"/><path d="M422.746,79.246v1.225c0,.216-.036.252-.252.27-.233,0-.594.018-.845,0-.2-.018-.252-.054-.252-.234.053-1.135.071-2.323.071-3.854V73.107c0-.955,0-1.909-.036-2.881,0-.162.054-.2.2-.2.919.037,1.891.037,2.9.037h3.961c1.08,0,2.251,0,3.187-.037.181,0,.217.055.217.252-.019.919-.036,1.873-.036,2.846v3.619c0,1.386.053,2.628.089,3.547,0,.2-.053.252-.234.252h-.937c-.161,0-.179-.054-.179-.234V79.246Zm7.851-8.03h-7.868v6.878H430.6Z"/><path d="M461.286,70.388c.54-.018.7-.054.9-.2.126-.09.27-.054.468.072a5.232,5.232,0,0,1,.72.594c.216.216.18.4.036.54a1.808,1.808,0,0,0-.468.63,24.209,24.209,0,0,1-3.475,5.618,22.358,22.358,0,0,1-5.617,4.663.306.306,0,0,1-.4-.054,2.543,2.543,0,0,0-1.008-.522,19.99,19.99,0,0,0,5.959-4.771,20.221,20.221,0,0,0,3.386-5.51l-5.185.144a26.086,26.086,0,0,1-3.566,3.853.383.383,0,0,1-.558.036,2.431,2.431,0,0,0-.918-.378,19.233,19.233,0,0,0,4.7-5.24,5.362,5.362,0,0,0,.9-2.25,4.53,4.53,0,0,1,1.351.63.264.264,0,0,1,0,.468,1.988,1.988,0,0,0-.54.612c-.271.432-.469.775-.721,1.135Z"/><rect class="b" x="304.415" y="59.919" width="3.358" height="1.343" transform="translate(78.856 -153.25) rotate(32.063)"/></svg>