<?xml version="1.0" encoding="utf-8"?>
<!-- Generator: Adobe Illustrator 22.0.1, SVG Export Plug-In . SVG Version: 6.00 Build 0)  -->
<svg version="1.1" id="Logo_FIXED" xmlns="http://www.w3.org/2000/svg" xmlns:xlink="http://www.w3.org/1999/xlink" x="0px" y="0px"
	 viewBox="0 0 439.479 83.639" style="enable-background:new 0 0 439.479 83.639;" xml:space="preserve">
<style type="text/css">
	.st0{fill:#1DA1F2;}
	.st1{display:none;}
	.st2{display:inline;fill:#FFFFFF;}
	.st3{fill:#FFFFFF;}
	.st4{display:none;fill:#FFFFFF;}
	.st5{font-family:'KozGoPr6N-Regular-83pv-RKSJ-H';}
	.st6{font-size:36px;}
</style>
<g id="中嶋">
	<path class="st0" d="M427.479,83.639H12c-6.6,0-12-5.4-12-12V12C0,5.4,5.4,0,12,0h415.479c6.6,0,12,5.4,12,12v59.639
		C439.479,78.239,434.079,83.639,427.479,83.639z"/>
</g>
<g id="中嶋_1_" class="st1">
	<path class="st2" d="M167.677,43.28c-0.18,0.936-0.288,1.764-0.288,2.412c0,1.548,0.504,2.268,1.476,2.304
		c2.124,0.036,4.428-2.988,4.428-7.812c0-5.975-3.384-10.115-9.467-10.115c-6.587,0-12.095,5.471-12.095,13.894
		c0,6.731,4.248,10.942,10.151,10.942c2.339,0,4.427-0.539,6.047-1.439l0.576,1.62c-2.124,1.151-4.355,1.619-6.983,1.619
		c-6.516,0-11.914-4.715-11.914-12.562c0-8.495,5.723-15.802,14.542-15.802c6.803,0,11.23,4.859,11.23,11.483
		c0,6.372-3.312,9.971-6.983,9.971c-1.548,0-2.987-1.08-2.844-3.6h-0.144c-1.476,2.483-3.348,3.6-5.688,3.6
		c-2.231,0-4.212-1.836-4.212-4.968c0-5.003,3.924-9.791,9.539-9.791c1.656,0,3.06,0.324,4.067,0.792L167.677,43.28z
		 M166.633,37.268c-0.396-0.144-1.08-0.324-2.016-0.324c-3.743,0-6.731,3.708-6.731,7.775c0,1.872,0.937,3.132,2.7,3.132
		c2.411,0,4.607-3.167,5.111-5.688L166.633,37.268z"/>
	<path class="st2" d="M182.654,36.152c1.368-2.412,3.636-3.779,6.695-3.779c4.644,0,7.991,3.996,7.991,10.007
		c0,7.199-4.211,10.51-8.531,10.51c-2.591,0-4.751-1.188-5.902-3.131h-0.072v10.727h-2.988V39.14c0-2.556-0.071-4.535-0.144-6.335
		h2.699l0.181,3.347H182.654z M182.835,44.647c0,3.816,2.844,5.832,5.507,5.832c3.852,0,5.976-3.312,5.976-7.991
		c0-4.067-2.052-7.667-5.867-7.667c-3.348,0-5.615,3.239-5.615,6.083V44.647z"/>
	<path class="st2" d="M204.831,52.458h-2.988V23.662h2.988V52.458z"/>
	<path class="st2" d="M226.139,47.239c0,2.016,0.108,3.707,0.181,5.219h-2.7l-0.144-3.096h-0.108
		c-0.899,1.548-2.915,3.527-6.263,3.527c-2.952,0-6.443-1.691-6.443-8.458V32.841h2.987v11.051c0,3.816,1.116,6.479,4.392,6.479
		c2.34,0,5.111-1.871,5.111-5.327V32.841h2.987V47.239z"/>
	<path class="st2" d="M258.755,52.458h-2.951V41.12c0-3.816-1.368-6.263-4.319-6.263c-2.412,0-4.607,2.268-4.607,5.255v12.347
		h-2.952V40.363c0-3.131-1.332-5.507-4.104-5.507c-2.556,0-4.823,2.52-4.823,5.579v12.022h-2.952V37.88
		c0-2.016-0.071-3.456-0.144-5.075h2.628l0.18,3.167h0.108c1.079-1.908,2.879-3.6,5.975-3.6c2.556,0,4.536,1.584,5.363,3.923h0.072
		c1.296-2.339,3.275-3.923,6.299-3.923c2.412,0,6.228,1.548,6.228,8.279V52.458z"/>
	<path class="st2" d="M267.361,36.152c1.368-2.412,3.636-3.779,6.695-3.779c4.644,0,7.991,3.996,7.991,10.007
		c0,7.199-4.211,10.51-8.531,10.51c-2.591,0-4.751-1.188-5.902-3.131h-0.072v10.727h-2.988V39.14c0-2.556-0.071-4.535-0.144-6.335
		h2.699l0.181,3.347H267.361z M267.542,44.647c0,3.816,2.844,5.832,5.507,5.832c3.852,0,5.976-3.312,5.976-7.991
		c0-4.067-2.052-7.667-5.867-7.667c-3.348,0-5.615,3.239-5.615,6.083V44.647z"/>
	<path class="st2" d="M294.9,37.88c3.167,0.54,5.867,3.096,5.867,6.983c0,4.284-3.096,8.027-9.143,8.027
		c-2.7,0-5.147-0.863-6.371-1.728l0.899-2.304c0.972,0.648,3.132,1.62,5.507,1.62c4.536,0,6.012-3.168,6.012-5.651
		c0-3.959-3.348-5.759-6.875-5.759h-1.764v-2.232h1.764c2.592,0,5.939-1.62,5.939-5.003c0-2.34-1.404-4.355-4.644-4.355
		c-1.979,0-3.852,0.972-4.932,1.764l-0.899-2.195c1.296-1.008,3.815-2.016,6.407-2.016c4.931,0,7.127,3.132,7.127,6.372
		c0,2.771-1.764,5.255-4.896,6.371V37.88z"/>
	<path class="st2" d="M303.433,55.157h20.338v1.8h-20.338V55.157z"/>
	<path class="st2" d="M342.419,52.458h-2.987v-11.59c0-3.204-1.152-6.011-4.571-6.011c-2.556,0-5.147,2.16-5.147,5.579v12.022
		h-2.988V37.88c0-2.016-0.071-3.492-0.144-5.075h2.664l0.18,3.204h0.072c0.972-1.908,3.239-3.636,6.299-3.636
		c2.447,0,6.623,1.476,6.623,8.135V52.458z"/>
	<path class="st2" d="M363.442,52.458h-3.672l-6.767-9.683l-1.8,2.052v7.631h-2.988V23.662h2.988v18.322h0.072
		c0.468-0.684,1.151-1.548,1.691-2.196l5.867-6.947h3.6l-7.379,8.099L363.442,52.458z"/>
	<path class="st2" d="M369.491,50.91c0,3.779-0.54,6.155-2.195,7.919c-1.476,1.512-3.96,2.124-5.579,2.124l-0.324-2.376
		c4.787-0.324,5.111-3.312,5.111-8.963V32.841h2.987V50.91z M367.979,29.385c-1.188,0-1.943-0.936-1.943-2.052
		c0-1.116,0.828-2.016,2.016-2.016c1.151,0,1.907,0.9,1.907,2.016C369.959,28.557,369.168,29.385,367.979,29.385z"/>
	<path class="st2" d="M402.033,52.458h-2.951V41.12c0-3.816-1.368-6.263-4.319-6.263c-2.412,0-4.607,2.268-4.607,5.255v12.347
		h-2.952V40.363c0-3.131-1.332-5.507-4.104-5.507c-2.556,0-4.823,2.52-4.823,5.579v12.022h-2.952V37.88
		c0-2.016-0.071-3.456-0.144-5.075h2.628l0.18,3.167h0.108c1.079-1.908,2.879-3.6,5.975-3.6c2.556,0,4.536,1.584,5.363,3.923h0.072
		c1.296-2.339,3.275-3.923,6.299-3.923c2.412,0,6.228,1.548,6.228,8.279V52.458z"/>
</g>
<g id="草野" class="st1">
	<path class="st2" d="M167.19,43.223c-0.18,0.936-0.288,1.764-0.288,2.411c0,1.548,0.504,2.269,1.476,2.304
		c2.124,0.036,4.427-2.987,4.427-7.811c0-5.975-3.384-10.115-9.467-10.115c-6.587,0-12.095,5.471-12.095,13.894
		c0,6.731,4.248,10.942,10.151,10.942c2.34,0,4.428-0.539,6.047-1.439l0.576,1.62c-2.124,1.151-4.355,1.619-6.983,1.619
		c-6.515,0-11.915-4.715-11.915-12.562c0-8.494,5.723-15.802,14.542-15.802c6.803,0,11.231,4.859,11.231,11.482
		c0,6.371-3.312,9.971-6.983,9.971c-1.548,0-2.987-1.079-2.844-3.6h-0.144c-1.476,2.484-3.348,3.6-5.688,3.6
		c-2.232,0-4.211-1.835-4.211-4.967c0-5.004,3.923-9.791,9.539-9.791c1.656,0,3.06,0.324,4.068,0.792L167.19,43.223z
		 M166.146,37.211c-0.396-0.144-1.08-0.323-2.016-0.323c-3.744,0-6.731,3.707-6.731,7.774c0,1.872,0.936,3.132,2.7,3.132
		c2.412,0,4.607-3.168,5.111-5.688L166.146,37.211z"/>
	<path class="st2" d="M190.158,39.263c2.124,0.685,3.383,2.736,4.031,5.724c0.864,3.96,1.476,6.371,2.016,7.415h-3.096
		c-0.432-0.792-1.043-3.203-1.764-6.623c-0.792-3.815-2.304-5.508-5.543-5.508h-3.348v12.131h-2.988V25.369
		c1.692-0.36,4.067-0.576,6.227-0.576c3.564,0,5.903,0.72,7.523,2.231c1.296,1.188,2.052,3.06,2.052,5.111
		c0,3.636-2.196,5.976-5.111,7.02V39.263z M185.983,37.967c3.815,0,6.263-2.159,6.263-5.471c0-4.068-3.06-5.328-6.407-5.328
		c-1.62,0-2.771,0.144-3.383,0.288v10.51H185.983z"/>
	<path class="st2" d="M219.821,52.402h-3.167l-2.952-8.891h-9.539l-2.879,8.891h-3.06l9.071-27.429h3.456L219.821,52.402z
		 M213.09,41.135L210.39,33c-0.576-1.872-1.043-3.6-1.404-5.22h-0.108c-0.36,1.656-0.864,3.384-1.368,5.111l-2.736,8.243H213.09z"/>
	<path class="st2" d="M236.058,28.357c-0.792-0.504-2.52-1.26-4.823-1.26c-3.816,0-5.256,2.339-5.256,4.319
		c0,2.7,1.656,4.067,5.327,5.615c4.428,1.872,6.695,4.14,6.695,8.063c0,4.355-3.167,7.702-9.07,7.702
		c-2.484,0-5.184-0.756-6.552-1.728l0.828-2.483c1.476,0.972,3.672,1.691,5.903,1.691c3.672,0,5.831-1.979,5.831-4.931
		c0-2.7-1.476-4.355-5.039-5.796c-4.14-1.548-6.947-3.959-6.947-7.739c0-4.175,3.384-7.235,8.387-7.235
		c2.592,0,4.571,0.648,5.615,1.296L236.058,28.357z"/>
	<path class="st2" d="M261.868,52.402h-2.988V39.299h-13.103v13.103h-2.987V25.009h2.987v11.698h13.103V25.009h2.988V52.402z"/>
	<path class="st2" d="M264.931,55.101h20.338v1.8h-20.338V55.101z"/>
	<path class="st2" d="M296.646,43.691c0,7.02-3.348,9.143-7.739,9.143c-1.224,0-2.664-0.252-3.42-0.575l0.432-2.448
		c0.685,0.252,1.656,0.468,2.772,0.468c3.167,0,4.967-1.403,4.967-6.839v-18.43h2.988V43.691z"/>
	<path class="st2" d="M302.478,24.973h2.987v27.429h-2.987V24.973z"/>
	<path class="st2" d="M330.951,52.402h-2.988l-8.747-14.435c-1.835-3.06-3.6-6.119-4.931-9.143l-0.145,0.036
		c0.252,3.492,0.288,6.695,0.288,11.446v12.095h-2.808V24.973h3.132l8.854,14.435c1.944,3.275,3.527,6.119,4.788,8.963l0.071-0.036
		c-0.288-3.815-0.359-7.091-0.359-11.411v-11.95h2.844V52.402z"/>
</g>
<g>
	<path class="st3" d="M167.988,43.224c-0.18,0.936-0.288,1.764-0.288,2.411c0,1.548,0.504,2.269,1.476,2.304
		c2.124,0.036,4.427-2.987,4.427-7.811c0-5.976-3.384-10.115-9.467-10.115c-6.587,0-12.095,5.472-12.095,13.895
		c0,6.731,4.248,10.942,10.151,10.942c2.34,0,4.428-0.539,6.047-1.439l0.576,1.62c-2.124,1.151-4.355,1.619-6.983,1.619
		c-6.515,0-11.915-4.715-11.915-12.562c0-8.494,5.723-15.802,14.542-15.802c6.803,0,11.231,4.86,11.231,11.483
		c0,6.371-3.312,9.971-6.983,9.971c-1.548,0-2.987-1.079-2.844-3.6h-0.144c-1.476,2.484-3.348,3.6-5.688,3.6
		c-2.232,0-4.211-1.835-4.211-4.967c0-5.004,3.923-9.791,9.539-9.791c1.656,0,3.06,0.324,4.068,0.792L167.988,43.224z
		 M166.944,37.212c-0.396-0.144-1.08-0.323-2.016-0.323c-3.744,0-6.731,3.707-6.731,7.774c0,1.872,0.936,3.132,2.7,3.132
		c2.412,0,4.607-3.168,5.111-5.688L166.944,37.212z"/>
	<path class="st3" d="M195.851,52.403h-2.987V40.812c0-3.203-1.152-5.975-4.536-5.975c-2.304,0-5.183,1.907-5.183,5.507v12.059
		h-2.988V23.606h2.988v12.203h0.072c1.296-2.16,3.671-3.492,6.083-3.492c2.412,0,6.551,1.476,6.551,8.136V52.403z"/>
	<path class="st3" d="M203.125,29.329c-1.152,0-1.943-0.9-1.943-2.052c0-1.116,0.828-2.016,1.979-2.016
		c1.188,0,1.944,0.9,1.944,2.016C205.105,28.537,204.277,29.329,203.125,29.329z M204.637,52.403h-2.988V32.784h2.988V52.403z"/>
	<path class="st3" d="M225.802,52.403h-3.671l-6.767-9.683l-1.8,2.052v7.631h-2.988V23.606h2.988v18.322h0.072
		c0.468-0.684,1.152-1.548,1.692-2.195l5.867-6.948h3.599l-7.379,8.1L225.802,52.403z"/>
	<path class="st3" d="M241.319,47.723c0,1.62,0.036,3.312,0.288,4.68h-2.735l-0.288-2.52h-0.108
		c-1.008,1.548-3.023,2.951-5.795,2.951c-3.743,0-5.724-2.735-5.724-5.579c0-4.715,4.104-7.271,11.375-7.235
		c0-1.655,0-5.399-4.464-5.399c-1.691,0-3.455,0.469-4.787,1.404l-0.72-2.052c1.584-1.044,3.779-1.656,5.976-1.656
		c5.543,0,6.982,3.924,6.982,7.812V47.723z M238.367,42.216c-3.708,0-8.352,0.54-8.352,4.68c0,2.52,1.584,3.635,3.384,3.635
		c2.916,0,4.968-2.231,4.968-4.607V42.216z"/>
	<path class="st3" d="M256.042,35.305c-0.323-0.036-0.647-0.072-1.079-0.072c-3.24,0-4.896,3.204-4.896,6.516v10.654h-2.988v-13.75
		c0-2.088-0.035-3.996-0.144-5.868h2.628l0.144,3.78h0.108c0.863-2.448,2.915-4.212,5.327-4.212c0.324,0,0.576,0.072,0.899,0.108
		V35.305z"/>
	<path class="st3" d="M274.905,47.183c0,2.017,0.108,3.708,0.181,5.22h-2.7l-0.144-3.096h-0.108
		c-0.899,1.548-2.915,3.527-6.263,3.527c-2.952,0-6.443-1.691-6.443-8.459V32.784h2.987v11.051c0,3.816,1.116,6.479,4.392,6.479
		c2.34,0,5.111-1.872,5.111-5.327V32.784h2.987V47.183z"/>
	<path class="st3" d="M296.757,32.749c-0.107,1.403-0.18,2.987-0.18,5.399v11.446c0,3.42-0.072,11.267-9.359,11.267
		c-2.231,0-4.679-0.54-6.155-1.548l0.792-2.34c1.26,0.756,3.168,1.476,5.508,1.476c3.6,0,6.228-1.907,6.228-7.091v-2.34h-0.072
		c-1.008,1.836-3.096,3.348-6.083,3.348c-4.68,0-8.027-4.14-8.027-9.646c0-6.804,4.247-10.403,8.495-10.403
		c3.348,0,5.111,1.8,5.939,3.384h0.071l0.145-2.951H296.757z M293.554,40.308c0-3.419-2.484-5.579-5.22-5.579
		c-3.455,0-5.867,3.06-5.867,7.812c0,4.175,2.016,7.45,5.831,7.45c2.232,0,5.256-1.691,5.256-5.759V40.308z"/>
	<path class="st3" d="M303.275,29.221l2.952-1.008v4.571h5.075v2.341h-5.075v11.338c0,2.484,0.756,3.852,2.663,3.852
		c0.9,0,1.513-0.107,2.017-0.288l0.18,2.304c-0.648,0.288-1.656,0.468-2.916,0.468c-4.751,0-4.896-4.319-4.896-6.407V35.125h-3.023
		v-2.341h3.023V29.221z"/>
	<path class="st3" d="M327.609,39.66c-1.476,1.871-3.563,2.987-6.191,2.987c-4.607,0-7.451-3.6-7.451-8.171
		c0-4.932,3.24-9.467,8.531-9.467c5.039,0,8.243,4.392,8.243,11.267c0,8.963-4.535,15.19-11.446,16.27
		c-1.26,0.217-2.412,0.288-3.204,0.252v-2.483c0.756,0.072,1.62-0.036,2.771-0.18c4.536-0.648,7.955-4.319,8.855-10.475H327.609z
		 M316.99,34.296c0,3.637,2.052,6.084,5.146,6.084c2.916,0,5.58-2.231,5.58-4.392c0-5.184-1.908-8.675-5.472-8.675
		C319.113,27.313,316.99,30.265,316.99,34.296z"/>
	<path class="st3" d="M341.505,52.403V28.249h-0.071l-4.428,2.556l-0.72-2.232l5.579-3.131h2.556v26.961H341.505z"/>
</g>
<text id="本庄_1_" transform="matrix(1 0 0 1 144.839 56.0573)" class="st4 st5 st6">＠xurabu</text>
<path class="st3" d="M71.759,72.648c31.139,0,48.171-24.806,48.171-46.318c0-0.705,0-1.406-0.05-2.104
	c3.313-2.304,6.174-5.158,8.447-8.426c-3.09,1.316-6.368,2.18-9.724,2.561c3.534-2.034,6.179-5.234,7.443-9.004
	c-3.323,1.896-6.959,3.233-10.75,3.951c-6.412-6.555-17.136-6.872-23.954-0.707c-4.397,3.976-6.262,9.9-4.898,15.554
	c-13.613-0.656-26.295-6.838-34.892-17.008c-4.494,7.438-2.198,16.954,5.242,21.731c-2.694-0.077-5.33-0.776-7.684-2.038
	c0,0.067,0,0.136,0,0.206c0.002,7.749,5.683,14.423,13.582,15.958c-2.492,0.654-5.108,0.749-7.644,0.279
	c2.218,6.631,8.574,11.174,15.817,11.305c-5.995,4.53-13.401,6.99-21.026,6.982c-1.347-0.002-2.693-0.081-4.03-0.235
	c7.742,4.777,16.751,7.311,25.95,7.3"/>
</svg>
