<svg xmlns="http://www.w3.org/2000/svg" viewBox="0 0 439.479 83.639"><defs><style>.a{fill:#1da1f2;}.b{fill:#fff;}</style></defs><title>nakajima_tw_link_1</title><rect class="a" width="439.479" height="83.639" rx="12" ry="12"/><path class="b" d="M167.677,43.28a13.581,13.581,0,0,0-.288,2.412c0,1.547.5,2.267,1.476,2.3,2.124.036,4.428-2.988,4.428-7.811,0-5.975-3.384-10.115-9.467-10.115-6.587,0-12.095,5.471-12.095,13.894,0,6.732,4.248,10.942,10.151,10.942a12.513,12.513,0,0,0,6.047-1.439l.577,1.62a14.085,14.085,0,0,1-6.984,1.619c-6.515,0-11.914-4.715-11.914-12.562,0-8.495,5.723-15.8,14.542-15.8,6.8,0,11.231,4.859,11.231,11.483,0,6.372-3.312,9.971-6.984,9.971-1.548,0-2.987-1.08-2.844-3.6h-.143c-1.476,2.483-3.348,3.6-5.688,3.6-2.231,0-4.212-1.836-4.212-4.968a9.7,9.7,0,0,1,9.539-9.791,9.845,9.845,0,0,1,4.068.792Zm-1.044-6.012a5.924,5.924,0,0,0-2.015-.324c-3.743,0-6.732,3.708-6.732,7.775,0,1.872.937,3.132,2.7,3.132,2.411,0,4.607-3.168,5.111-5.688Z"/><path class="b" d="M182.654,36.152a7.265,7.265,0,0,1,6.695-3.779c4.644,0,7.991,4,7.991,10.007,0,7.2-4.21,10.51-8.531,10.51a6.662,6.662,0,0,1-5.9-3.131h-.072V60.486h-2.989V39.14c0-2.556-.071-4.535-.143-6.335h2.7l.181,3.347Zm.181,8.495a5.535,5.535,0,0,0,5.506,5.832c3.852,0,5.976-3.312,5.976-7.991,0-4.068-2.052-7.667-5.867-7.667-3.348,0-5.615,3.239-5.615,6.083Z"/><path class="b" d="M204.831,52.458h-2.989v-28.8h2.989Z"/><path class="b" d="M226.139,47.239c0,2.016.109,3.707.181,5.219h-2.7l-.144-3.095h-.108a7.114,7.114,0,0,1-6.263,3.527c-2.952,0-6.443-1.692-6.443-8.459V32.841h2.987v11.05c0,3.816,1.116,6.479,4.392,6.479a5.192,5.192,0,0,0,5.111-5.327v-12.2h2.987Z"/><path class="b" d="M258.755,52.458H255.8V41.12c0-3.816-1.368-6.263-4.319-6.263-2.412,0-4.607,2.267-4.607,5.255V52.458h-2.953V40.363c0-3.131-1.332-5.506-4.1-5.506-2.556,0-4.823,2.519-4.823,5.579V52.458h-2.952V37.88c0-2.016-.072-3.455-.144-5.075h2.628l.18,3.167h.108a6.533,6.533,0,0,1,5.975-3.6,5.606,5.606,0,0,1,5.363,3.923h.072a6.874,6.874,0,0,1,6.3-3.923c2.412,0,6.228,1.548,6.228,8.279Z"/><path class="b" d="M267.361,36.152a7.265,7.265,0,0,1,6.695-3.779c4.644,0,7.992,4,7.992,10.007,0,7.2-4.211,10.51-8.532,10.51a6.662,6.662,0,0,1-5.9-3.131h-.072V60.486h-2.989V39.14c0-2.556-.071-4.535-.143-6.335h2.7l.181,3.347Zm.181,8.495a5.535,5.535,0,0,0,5.507,5.832c3.851,0,5.975-3.312,5.975-7.991,0-4.068-2.052-7.667-5.867-7.667-3.348,0-5.615,3.239-5.615,6.083Z"/><path class="b" d="M294.9,37.88a6.907,6.907,0,0,1,5.867,6.983c0,4.284-3.095,8.027-9.142,8.027a11.906,11.906,0,0,1-6.371-1.728l.9-2.3a10.744,10.744,0,0,0,5.507,1.62c4.536,0,6.012-3.168,6.012-5.652,0-3.959-3.348-5.759-6.875-5.759h-1.764V36.836H290.8c2.591,0,5.939-1.619,5.939-5,0-2.34-1.4-4.356-4.644-4.356a8.858,8.858,0,0,0-4.931,1.764l-.9-2.2a11.269,11.269,0,0,1,6.408-2.016c4.93,0,7.127,3.131,7.127,6.371a6.8,6.8,0,0,1-4.9,6.371Z"/><path class="b" d="M303.433,55.157h20.338v1.8H303.433Z"/><path class="b" d="M342.419,52.458h-2.988V40.868c0-3.2-1.152-6.011-4.571-6.011a5.343,5.343,0,0,0-5.147,5.579V52.458h-2.989V37.88c0-2.016-.071-3.492-.143-5.075h2.664l.179,3.2h.073a7,7,0,0,1,6.3-3.636c2.447,0,6.623,1.475,6.623,8.135Z"/><path class="b" d="M363.442,52.458H359.77L353,42.776l-1.8,2.051v7.631h-2.989v-28.8H351.2V41.984h.072c.468-.684,1.151-1.548,1.691-2.2l5.868-6.947h3.6l-7.379,8.1Z"/><path class="b" d="M369.491,50.91c0,3.78-.54,6.156-2.195,7.919a8.37,8.37,0,0,1-5.58,2.124l-.324-2.376c4.787-.324,5.112-3.311,5.112-8.963V32.841h2.987Zm-1.512-21.525a1.939,1.939,0,0,1-1.943-2.052,1.967,1.967,0,0,1,2.015-2.015,2.036,2.036,0,0,1-.072,4.067Z"/><path class="b" d="M402.033,52.458h-2.951V41.12c0-3.816-1.368-6.263-4.32-6.263-2.412,0-4.607,2.267-4.607,5.255V52.458H387.2V40.363c0-3.131-1.332-5.506-4.1-5.506-2.555,0-4.823,2.519-4.823,5.579V52.458h-2.952V37.88c0-2.016-.071-3.455-.144-5.075h2.628l.18,3.167h.108a6.533,6.533,0,0,1,5.975-3.6,5.605,5.605,0,0,1,5.363,3.923h.073a6.871,6.871,0,0,1,6.3-3.923c2.412,0,6.228,1.548,6.228,8.279Z"/><path class="b" d="M70.511,73.694c31.139,0,48.17-24.806,48.17-46.318,0-.705,0-1.406-.049-2.1a33.752,33.752,0,0,0,8.446-8.427,34.854,34.854,0,0,1-9.724,2.562,16.463,16.463,0,0,0,7.443-9,34.769,34.769,0,0,1-10.75,3.951,17.428,17.428,0,0,0-23.954-.707A15.9,15.9,0,0,0,85.2,29.2,48.736,48.736,0,0,1,50.3,12.193a15.915,15.915,0,0,0,5.241,21.73,17.308,17.308,0,0,1-7.684-2.037v.206A16.458,16.458,0,0,0,61.443,48.05a17.564,17.564,0,0,1-7.644.279A16.884,16.884,0,0,0,69.616,59.634,34.845,34.845,0,0,1,48.59,66.616a35.7,35.7,0,0,1-4.03-.235,49.334,49.334,0,0,0,25.951,7.3"/></svg>